<svg xmlns="http://www.w3.org/2000/svg"><svg viewBox="0 0 350 350"><g transform="translate(10 10)"><ellipse cx="4.4348mm" cy="4.4364mm" rx="4.4348mm" ry="4.4364mm" fill="#62d84e" transform="translate(150 100)"/><ellipse cx="4.4348mm" cy="4.4364mm" rx="4.4348mm" ry="4.4364mm" fill="#62d84e" transform="translate(150 225)"/><ellipse cx="4.4348mm" cy="4.4364mm" rx="4.4348mm" ry="4.4364mm" fill="#62d84e" transform="translate(219 170)"/>
<path fill="#032d42" d="M 252.3755 213.4721 C 247.9022 210.0091 242.2098 207.9405 235.9973 207.9405 C 229.766 207.9405 224.058 210.0218 219.5781 213.505 C 210.8157 208.0525 205.0062 198.337 205.0062 187.2144 C 205.0062 180.8869 206.8864 175.0146 210.1208 170.1237 L 183.4171 143.4189 C 181.7376 144.5295 179.943 145.4802 178.0542 146.2501 L 178.0542 212.7065 C 189.3488 217.3097 197.2701 228.3793 197.2701 241.3669 C 197.2701 252.6472 191.2947 262.4804 182.3235 267.8868 C 177.9121 264.596 172.3646 262.6413 166.3256 262.6413 C 160.2867 262.6413 154.7393 264.596 150.328 267.8868 C 141.3568 262.4804 135.3815 252.6472 135.3815 241.3669 C 135.3815 228.0313 143.7329 216.718 155.5124 212.3504 L 155.5124 146.6061 C 143.7329 142.2385 135.3815 130.9253 135.3815 117.5896 C 135.3815 111.2621 137.2617 105.3898 140.4961 100.4988 L 92.8548 52.8567 L 15.0341 130.6772 C -5.0114 150.7229 -5.0114 182.9985 15.0341 203.0439 L 127.288 315.2978 C 147.3335 335.3432 179.609 335.3432 199.6546 315.2978 L 315.2978 199.6544 C 335.3434 179.609 335.3434 147.3334 315.2978 127.288 L 203.0439 15.0341 C 182.9985 -5.0114 150.7229 -5.0114 130.6774 15.0341 L 110.7302 34.9812 L 162.614 86.8635 C 163.8306 86.7195 165.0692 86.6452 166.3257 86.6452 C 183.469 86.6452 197.2701 100.4465 197.2701 117.5896 C 197.2701 118.8462 197.1958 120.0847 197.0518 121.3015 L 232.2388 156.4885 C 233.4553 156.3443 234.694 156.2702 235.9505 156.2702 C 253.0937 156.2702 266.8948 170.0714 266.8948 187.2144 C 266.8948 198.3146 261.1086 208.0137 252.3755 213.4721 Z"/></g></svg></svg>